<?xml version="1.0" encoding="UTF-8"?> <svg xmlns="http://www.w3.org/2000/svg" xmlns:xlink="http://www.w3.org/1999/xlink" id="Сгруппировать_3227" data-name="Сгруппировать 3227" width="375" height="112" viewBox="0 0 375 112"> <defs> <linearGradient id="linear-gradient" x1="0.5" x2="0.5" y2="1" gradientUnits="objectBoundingBox"> <stop offset="0" stop-color="#c3cbce"></stop> <stop offset="1" stop-color="#c3cbce" stop-opacity="0"></stop> </linearGradient> </defs> <g id="Header" transform="translate(0 -70)"> <g id="BG-HEADER" transform="translate(0 70)"> <rect id="MENU_SHADOW" width="375" height="48" transform="translate(0 64)" fill="url(#linear-gradient)"></rect> <rect id="BG" width="375" height="94" fill="#fff"></rect> <g id="progress" transform="translate(0.071 81.987)"> <rect id="BG-2" data-name="BG" width="375" height="12" transform="translate(-0.071 0.013)" fill="#eceff0"></rect> <path id="green" d="M5.071.045l191-.045a4,4,0,1,1,0,8l-191-.07V.045Z" transform="translate(-5.142 2.013)" fill="#46d444"></path> </g> </g> <g id="h1" transform="translate(18 91.679)"> <g id="Сгруппировать_2182" data-name="Сгруппировать 2182"> <text id="Сегодня_" data-name="Сегодня " transform="translate(0 15)" fill="#334856" font-size="16" font-family="SegoeUI-Bold, Segoe UI" font-weight="700" letter-spacing="-0.02em"> <tspan x="0" y="0">Сегодня </tspan> </text> </g> <g id="Сгруппировать_2743" data-name="Сгруппировать 2743" transform="translate(0 23)"> <g id="Сгруппировать_2303" data-name="Сгруппировать 2303"> <text id="_30_февраля_вторникдельник" data-name="30 февраля, вторникдельник" transform="translate(0 13)" fill="#334856" font-size="14" font-family="SegoeUI, Segoe UI" letter-spacing="-0.02em"> <tspan x="0" y="0">30 февраля, вторникдельник</tspan> </text> </g> </g> </g> <g id="h-r" transform="translate(287 91.679)"> <g id="Сгруппировать_2939" data-name="Сгруппировать 2939" transform="translate(38)"> <text id="_55_" data-name="55%" transform="translate(0 15)" fill="#46d444" font-size="16" font-family="SegoeUI-Bold, Segoe UI" font-weight="700" letter-spacing="-0.02em"> <tspan x="0" y="0">55%</tspan> </text> </g> <g id="Сгруппировать_2940" data-name="Сгруппировать 2940" transform="translate(0 23)"> <text id="Выполнено" transform="translate(70 13)" fill="#46d444" font-size="14" font-family="SegoeUI, Segoe UI" letter-spacing="-0.02em"> <tspan x="-71.062" y="0">Выполнено</tspan> </text> </g> <g id="Page-1" transform="translate(16 0.461)"> <g id="Artboard"> <g id="check-circle"> <path id="Shape" d="M15.842,8.183V8.92a7.921,7.921,0,1,1-4.7-7.24" transform="translate(0 -0.994)" fill="none" stroke="#46d444" stroke-linecap="round" stroke-linejoin="round" stroke-width="2" fill-rule="evenodd"></path> <path id="Shape-2" data-name="Shape" d="M18.09,2,9.376,10.713,7,8.337" transform="translate(-1.455 -1.203)" fill="none" stroke="#46d444" stroke-linecap="round" stroke-linejoin="round" stroke-width="2" fill-rule="evenodd"></path> </g> </g> </g> </g> </g> <path id="Контур_1936" data-name="Контур 1936" d="M7.753-7.919a.824.824,0,0,0-.607-.243.824.824,0,0,0-.607.243L1.964-3.345-2.61-7.919a.824.824,0,0,0-.607-.243.824.824,0,0,0-.607.243.845.845,0,0,0-.263.617.781.781,0,0,0,.263.6L1.357-1.523a.689.689,0,0,0,.283.2.917.917,0,0,0,.324.061.917.917,0,0,0,.324-.061.689.689,0,0,0,.283-.2L7.753-6.7a.781.781,0,0,0,.263-.6A.845.845,0,0,0,7.753-7.919Z" transform="translate(206.487 58.711)" fill="#334856"></path> </svg> 