<?xml version="1.0" encoding="UTF-8" standalone="no"?> <svg xmlns="http://www.w3.org/2000/svg" xmlns:xlink="http://www.w3.org/1999/xlink" xmlns:serif="http://www.serif.com/" width="100%" height="100%" viewBox="0 0 1006 802" xml:space="preserve" style="fill-rule:evenodd;clip-rule:evenodd;stroke-linecap:round;stroke-linejoin:round;stroke-miterlimit:1.5;"> <rect id="Монтажная-область1" serif:id="Монтажная область1" x="0" y="0" width="1005.94" height="801.87" style="fill:none;"></rect> <clipPath id="_clip1"> <rect x="0" y="0" width="1005.94" height="801.87"></rect> </clipPath> <g clip-path="url(#_clip1)"> <rect x="-6.062" y="-0.448" width="1029.02" height="441.562" style="fill:url(#_Linear2);"></rect> <rect x="-6.049" y="439.558" width="1029.01" height="357.671" style="fill:url(#_Linear3);"></rect> <path d="M765.82,517.143c0,0 1.864,-8.286 5.22,-9.28c3.357,-0.994 6.621,-1.614 8.671,-1.831c2.049,-0.217 0.49,4.879 -0.825,7.832c-1.315,2.952 -10.097,6.273 -11.642,4.744c-1.544,-1.529 -1.424,-1.465 -1.424,-1.465Z" style="fill:#00c600;"></path> <path d="M231.731,484.944c0,0 -6.816,-5.067 -6.361,-8.538c0.454,-3.471 1.214,-6.706 1.848,-8.667c0.633,-1.961 4.657,1.533 6.821,3.934c2.164,2.4 1.633,11.774 -0.391,12.565c-2.024,0.79 -1.917,0.706 -1.917,0.706Z" style="fill:#00c600;"></path> <path d="M289.778,684.547c0,0 -4.975,-4.228 -4.313,-7.569c0.663,-3.34 1.547,-6.483 2.22,-8.403c0.674,-1.92 3.567,1.054 5.078,3.15c1.511,2.095 0.276,11.056 -1.401,11.984c-1.676,0.927 -1.584,0.838 -1.584,0.838Z" style="fill:#00c600;fill-opacity:0.42;"></path> <path d="M294.966,688.313c0,0 -0.909,-6.465 1.806,-8.522c2.714,-2.057 5.462,-3.818 7.242,-4.806c1.779,-0.987 1.965,3.158 1.702,5.728c-0.263,2.57 -7.14,8.447 -9.009,8.026c-1.87,-0.421 -1.741,-0.426 -1.741,-0.426Z" style="fill:#00c600;fill-opacity:0.42;"></path> <path d="M724.169,692c0,0 -8.48,0.463 -10.35,-2.497c-1.871,-2.959 -3.355,-5.931 -4.122,-7.844c-0.767,-1.913 4.561,-1.8 7.76,-1.338c3.199,0.462 8.785,8.008 7.734,9.91c-1.05,1.902 -1.022,1.769 -1.022,1.769Z" style="fill:#00c600;fill-opacity:0.47;"></path> <path d="M678.069,513.004l-2.618,-13.664l10.353,9.782l6.536,-29.263l1.198,26.37l17.61,-21.262l-5.552,20.592l11.176,-7.049l-4.355,14.532" style="fill:none;stroke:#079c3a;stroke-width:2.11px;"></path> <path d="M712.417,513.042l25.594,0.272" style="fill:none;stroke:#079c3a;stroke-width:2.11px;"></path> <path d="M652.24,513.231l25.594,0.272" style="fill:none;stroke:#079c3a;stroke-width:2.11px;"></path> <path d="M715.081,107.194c0,0 168.743,-4.073 170.943,-3.689c2.2,0.384 9.737,-42.983 -34.738,-36.728c0,0 -8.255,-0.711 -8.459,8.505c0,0 -0.134,-5.653 -10.604,-6.605c0,0 -3.348,-1.772 -9.966,1.821c0,0 10.627,-31.103 -20.535,-31.328c0,0 -22.386,-1.922 -23.335,16.627c0,0 0.549,-2.692 -11.279,-2.768c0,0 -9.333,-1.222 -10.199,13.995c0,0 -13.21,-7.944 -13.405,5.801c0,0 -9.169,-4.592 -8.375,6.741c0,0 -10.515,-6.312 -9.826,10.151c0,0 -11.97,3.489 -10.222,17.477Z" style="fill:#fff;"></path> <path d="M111.503,91.302c45.175,-0.623 100.281,-1.383 145.433,-3c0.763,-0.028 0.756,-1.843 0.776,-2.018c0.2,-1.808 0.518,-3.609 0.584,-5.426c0.09,-2.513 0.165,-5.042 -0.118,-7.541c-1.415,-12.499 -7.211,-27.077 -22.866,-25.443c-2.058,0.215 -4.093,0.675 -6.07,1.263c0,0 -8.695,5.504 -9.056,16.207c0,0 1.924,-11.281 -7.337,-6.825c0,0 -0.73,-6.868 -7.608,-2.45c0,0 6.485,-19.916 -20.026,-20.099c0,0 -19.045,-1.564 -19.853,13.524c0,0 -5.099,-6.755 -15.15,-3.699c0,0 -15.238,4.613 -14.566,21.266c0,0 -7.762,-7.45 -7.086,1.768c0,0 -8.946,-5.134 -8.36,8.258c0,0 -10.184,2.837 -8.697,14.215Z" style="fill:#fff;fill-opacity:0.94;"></path> <path d="M148.062,248.928c0,0 -112.734,1.248 -114.205,1.519c-1.472,0.27 -6.782,-33.688 22.99,-29.409c0,0 5.523,-0.508 5.675,5.902c0,0 -0.611,-10.253 6.394,-10.932c0,0 4.717,-1.618 7.363,7.572c0,0 -7.163,-21.614 13.69,-21.821c0,0 14.977,-1.373 15.644,11.526c0,0 -0.372,-1.871 7.543,-1.943c0,0 6.243,-0.865 6.848,9.716c0,0 10.087,-9.732 12.585,3.54c0,0 9.037,0.742 8.603,12.193c0,0 8.016,2.406 6.87,12.137Z" style="fill:#fff;fill-opacity:0.74;"></path> <path d="M837.508,265.13c0,0 90.991,1.022 92.178,1.245c1.188,0.222 5.476,-27.711 -18.555,-24.19c0,0 -4.458,-0.417 -4.58,4.855c0,0 0.494,-8.434 -5.161,-8.992c0,0 -3.807,-1.33 -5.943,6.228c0,0 5.782,-17.779 -11.049,-17.948c0,0 -12.088,-1.129 -12.627,9.481c0,0 0.301,-1.538 -6.088,-1.598c0,0 -5.039,-0.711 -5.528,7.993c0,0 -8.141,-8.005 -10.158,2.912c0,0 -7.294,0.611 -6.944,10.03c0,0 -6.47,1.98 -5.545,9.984Z" style="fill:#fff;fill-opacity:0.6;"></path> <path d="M-18.077,436.71c0,0 1007.91,0.439 1026.61,0.737c20.674,0.33 33.856,-60.189 -9.366,-69.195c0,0 -32.243,-4.948 -31.967,16.875c0,0 -6.921,-13.982 -26.433,-3.728c-11.327,5.952 -14.305,18.221 -16.092,20.923c0,0 10.468,-73.982 -31.585,-83.537c-42.054,-9.555 -45.547,19.059 -49.825,27.114c0,0 -27.595,-10.003 -38.522,28.752c0,0 -2.556,-8.424 -13.787,-3.181c-11.232,5.243 -12.709,12.772 -14.499,18.889" style="fill:#00995f;"></path> <path d="M774.552,398.59c-2.871,-0.779 -4.904,-2.394 -8.683,1.448c0,0 3.981,-19.553 -10.206,-24.723c0,0 -5.533,-2.16 -12.232,1.529c0,0 -20.053,-10.646 -17.322,9.509c0,0 -17.686,-34.761 -37.621,-10.163c0,0 -6.304,-24.449 -23.06,-17.738c-16.755,6.712 -25.36,32.594 -25.36,32.594c0,0 -12.325,-54.723 -45.164,-46.483l-80.506,44.815l-32.354,29.191l-2.432,-58.842c-25.848,-23.219 -44.123,6.56 -61.448,26.678c-4.923,5.715 -16.487,-19.12 -34.493,-18.552c-13.811,0.435 -38.931,17.69 -39.437,24.832c0,0 6.392,-31.036 -28.346,-26.898c0,0 -19.943,0.093 -23.207,23.007c0,0 -9.249,-18.043 -31.263,-11.377c0,0 -14.005,-43.984 -41.357,-2.646c0,0 -10.033,-9.275 -21.58,1.489c0,0 -7.083,4.259 -12.403,10.588c0,0 7.05,-29.109 -18.277,-20.332c-10.22,3.542 1.679,-51.44 -38.887,-35.182c-5.827,2.335 4.784,-21.138 -25.631,-20.303c-17.748,0.487 -31.712,28.077 -26.688,42.21c0,0 -34.494,-14.69 -38.615,15.88c0,0 -1.762,9.042 8.807,20.356c0.499,0.534 -14.488,-15.496 -21.478,1.436c0,0 -2.163,22.628 -0.881,24.271c0,0 -4.189,-14.124 -17.919,-8.315c0,0 -11.183,0.822 -11.807,15.489c0,0 -12.116,-7.792 -14.164,5.66l-0.347,9.721l0.916,4.262" style="fill:#00995f;"></path> <path d="M1015.17,417.489c0,0 -1016.49,-5.357 -1016.9,3.779c-0.39,8.693 -0.003,21.654 -0.003,21.654c0,0 955.639,-2.855 983.597,-2.008c27.958,0.847 34.958,-0.482 35.36,-9.957c0.624,-14.688 -2.05,-13.468 -2.05,-13.468Z" style="fill:#00a14e;"></path> <path d="M294.986,690.175c2.319,-0.311 27.841,-1.095 27.841,-1.095l-4.916,-20.557l11.372,18.902l-2.804,-36.375l8.562,35.701l9.719,-18.26l-3.422,17.867l6.793,-5.02l-0.589,5.947l20.817,1.402" style="fill:none;stroke:#079c3a;stroke-opacity:0.45;stroke-width:2.11px;"></path> <path d="M49.066,581.705c1.901,-0.225 22.83,-0.794 22.83,-0.794l-4.032,-14.907l9.325,13.707l-2.298,-26.378l7.02,25.889l7.97,-13.241l-2.806,12.956l5.57,-3.64l-0.483,4.313l17.071,1.016" style="fill:none;stroke:#079c3a;stroke-opacity:0.45;stroke-width:2.11px;"></path> <path d="M45.903,749.722c2.76,-0.258 33.151,-0.911 33.151,-0.911l-5.854,-17.117l13.541,15.739l-3.338,-30.288l10.194,29.727l11.573,-15.205l-4.074,14.877l8.088,-4.179l-0.702,4.951l24.789,1.168" style="fill:none;stroke:#079c3a;stroke-opacity:0.45;stroke-width:2.11px;"></path> <path d="M891.39,548.928c2.025,-0.229 24.327,-0.809 24.327,-0.809l-4.296,-15.201l9.937,13.977l-2.45,-26.897l7.481,26.399l8.493,-13.502l-2.99,13.211l5.936,-3.712l-0.515,4.397l18.191,1.037" style="fill:none;stroke:#079c3a;stroke-opacity:0.45;stroke-width:2.11px;"></path> <path d="M136.564,500.955l37.133,0.827l-3.504,-15.696l11.354,12.596l2.826,-30.566l4.032,30.412l9.141,-16.806l-2.094,18.773c0,0 37.054,-0.191 37.321,-0.615" style="fill:none;stroke:#079c3a;stroke-opacity:0.49;stroke-width:2.11px;"></path> <path d="M913.511,674.71c-1.975,-0.255 -23.724,-0.899 -23.724,-0.899l4.19,-16.891l-9.69,15.531l2.388,-29.887l-7.295,29.333l-8.282,-15.003l2.916,14.68l-5.788,-4.124l0.502,4.886l-17.74,1.151" style="fill:none;stroke:#079c3a;stroke-opacity:0.38;stroke-width:2.11px;"></path> <path d="M438.804,269.367c0,0 40.956,53.97 62.171,49.712" style="fill:none;stroke:#000;stroke-width:14.02px;"></path> <path d="M453.229,450.259c0,0 -50.996,144.638 -81.01,143.987c-30.014,-0.651 -93.641,-30.283 -107.153,-54.414c-13.512,-24.13 -34.738,25.327 -37.738,32.464" style="fill:none;stroke:#000;stroke-width:14.02px;"></path> <path d="M432.674,222.733c0,0 46.955,525.582 57.501,531.394c0,0 47.659,20.998 57.787,22.967" style="fill:none;stroke:#000;stroke-width:14.33px;"></path> <path d="M616.82,447.95c5.871,1.901 13.683,4.001 20.276,3.47c26.103,-2.103 31.076,-34.157 27.779,-54.611c-3.256,-20.203 -13.521,-38.564 -17.332,-58.657c-5.675,-29.926 -2.062,-58.539 20.509,-80.254c14.295,-13.753 36.705,-7.921 52.351,-0.121c9.068,4.521 16.263,14.403 14.934,24.918c-0.781,6.177 -3.599,12.637 -7.924,17.18c-4.9,5.148 -10.771,7.97 -17.689,9.266c-4.962,0.93 -11.396,-0.053 -16.128,-1.534c-13.361,-4.182 -13.707,-28.392 -1.012,-33.588c3.305,-1.353 7.049,-0.62 10.283,0.548c1.732,0.625 3.231,1.796 4.692,2.916" style="fill:none;stroke:#be6e2e;stroke-width:7.62px;"></path> <path d="M606.866,463.42c0,0 12.284,155.954 53.79,131.913c41.507,-24.041 27.844,-58.235 51.381,-51.549c22.804,6.478 30.607,18.153 30.607,18.153" style="fill:none;stroke:#be6e2e;stroke-width:7.62px;"></path> <path d="M521.274,493.644c-11.724,30.564 -18.707,63.239 -17.994,96.083c0.393,18.139 2.735,24.924 5.504,42.757c2.393,15.412 4.557,30.859 6.845,46.286c0.863,5.826 1.574,11.677 2.608,17.475c1.317,7.378 5.559,16.734 0.671,23.996c-3.579,5.317 -9.87,10.448 -14.987,14.134" style="fill:none;stroke:#be6e2e;stroke-width:7.62px;"></path> <path d="M560.503,283.011c0,0 15.858,48.675 23.524,56.601c7.665,7.927 42.547,49.407 40.891,77.91c-1.657,28.504 -11.451,52.814 -25.066,69.451c-15.874,19.396 -73.343,21.674 -91.187,12.422c-18.137,-9.403 -40.131,-61.368 -39.555,-82.041c0.576,-20.657 10.878,-48.325 9.479,-60.033c-1.398,-11.708 6.399,-69.142 17.733,-76.256c11.334,-7.114 64.181,1.946 64.181,1.946Z" style="fill:#c5722f;"></path> <path d="M502.488,285.875c-0.205,0.045 -0.419,-0.018 -0.566,-0.167c-1.831,-2.097 -16.209,24.523 -13.536,50.719c0.929,9.106 0.045,51.888 -4.075,72.956c-4.12,21.069 3.154,50.498 13.585,62.677c10.43,12.179 24.99,15.626 41.516,8.415c17.541,-7.654 24.474,-46.723 21.789,-61.393c-2.684,-14.671 -11.106,-53.869 -18.946,-69.318c-7.242,-14.271 -12.784,-51.998 -21.671,-58.875c-8.176,-6.326 -16.315,-5.331 -18.096,-5.014Z" style="fill:#ffd3a2;fill-opacity:0.6;"></path> <path d="M488.462,384.722c-2.715,0.125 -2.439,4.458 -2.659,5.948c-0.858,5.803 -1.924,11.576 -2.676,17.394c-0.672,5.203 -1.497,10.413 -1.594,15.658c-0.095,5.077 0.479,10.15 1.021,15.198c2.026,18.862 17.761,43.916 39.911,38.186c4.576,-1.184 -0.925,-7.774 -1.606,-8.831c-5.524,-8.576 -12.432,-17.302 -14.718,-27.563c-3.068,-13.775 -0.824,-27.79 -1.174,-41.711c-0.117,-4.632 -0.84,-12.834 -6.577,-14.659c-3.265,-1.04 -6.709,0.231 -9.928,0.38Z" style="fill:#fff;fill-opacity:0.08;"></path> <path d="M566.923,313.186c0.813,-1.149 -9.831,-8.251 -12.602,-1.619c-2.239,5.358 -7.058,16.723 -7.574,20.927c-2.71,22.1 15.563,36.782 18.377,56.854c1.732,12.358 3.242,24.717 4.594,37.122c0.935,8.58 -3.121,18.886 0.328,27.089c4.385,10.427 8.736,17.552 21.33,15.719c17.78,-2.589 16.058,-31.986 14.767,-45.149c-1.534,-15.63 -2.757,-32.665 -7.22,-47.824c-2.337,-7.942 -6.526,-15.125 -9.516,-22.742c-2.379,-6.061 -2.372,-12.839 -7.219,-17.725c-6.836,-6.891 -15.265,-22.652 -15.265,-22.652Z" style="fill-opacity:0.04;"></path> <path d="M411.714,297.047c0,0 4.16,17.816 6.157,21.813c1.996,3.997 4.364,8.701 4.364,8.701" style="fill:none;stroke:#9d6438;stroke-width:7.62px;"></path> <path d="M422.8,324.722c0,0 -2.167,0.543 -2.185,-7.16c-0.017,-7.704 1.619,-16.2 2.181,-19.837" style="fill:none;stroke:#9d6438;stroke-width:7.62px;"></path> <path d="M422.221,326.031c2.123,-4.64 7.375,-10.705 10.614,-16.051c3.238,-5.346 4.932,-6.575 5.071,-7.193" style="fill:none;stroke:#9d6438;stroke-width:7.62px;"></path> <path d="M568.598,304.041c23.038,13.3 10.268,43.856 -4.733,59.955c-8.157,8.753 -11.808,14.728 -22.973,21.284c-13.589,7.98 -25.665,12.539 -41.755,13.251c-8.349,0.37 -23.197,-1.315 -30.302,-4.8c-21.634,-10.61 -40.169,-43.319 -47.042,-67.229" style="fill:none;stroke:#9d6438;stroke-width:7.62px;"></path> <path d="M544.829,164.958c0.139,-1.792 3.403,-17.448 4.51,-10.269c1.107,7.18 0.54,10.917 1.184,10.706c0.643,-0.211 0.788,0.847 2.504,-2.88c1.779,-3.863 1.672,-7.073 3.947,-6.791c0.747,0.092 0.887,0.463 1.116,5.265c0.284,5.947 -2.584,8.777 -0.934,8.721c1.65,-0.057 0.856,-0.755 3.318,-3.073c2.938,-2.765 1.972,-3.81 4.711,-5.465c2.876,-1.738 -3.78,13.391 -0.009,9.871c3.772,-3.52 4.397,-5.265 6.144,-6.348c0.822,-0.508 0.346,2.621 -0.8,5.464c-1.172,2.909 -0.22,1.447 -1.858,4.074c-1.639,2.627 -12.118,2.921 -12.118,2.921l-8.775,-2.844c0,0 -3.08,-7.559 -2.94,-9.352Z" style="fill:#c5722f;"></path> <path d="M578.349,200.18c0,0 6.936,-9.539 15.714,-9.279c8.778,0.26 20.471,9.27 19.804,19.092c-0.668,9.822 -10.321,17.788 -21.032,16.832c-10.711,-0.956 -15.796,-1.799 -19.106,-5.413c-3.309,-3.615 4.62,-21.232 4.62,-21.232Z" style="fill:#ffc28e;"></path> <path d="M515.456,177.87c0,0 -3.361,-11.304 -11.724,-13.984c-8.363,-2.679 -22.39,1.919 -25.033,11.403c-2.644,9.483 3.804,20.21 14.222,22.878c10.417,2.667 15.493,3.567 19.817,1.261c4.325,-2.305 2.718,-21.558 2.718,-21.558Z" style="fill:#ffc28e;"></path> <path d="M556.124,165.121c23.352,8.322 33.916,38.638 23.574,67.657c-10.341,29.02 -37.696,45.824 -61.049,37.502c-23.352,-8.322 -33.915,-38.638 -23.574,-67.658c10.341,-29.019 37.696,-45.823 61.049,-37.501Z" style="fill:#c5722f;"></path> <path d="M535.968,220.794c32.237,8.289 54.223,31.3 49.067,51.353c-5.156,20.053 -35.515,29.604 -67.753,21.315c-32.237,-8.289 -54.224,-31.3 -49.067,-51.353c5.156,-20.054 35.515,-29.604 67.753,-21.315Z" style="fill:#ffc28e;"></path> <path d="M516.706,224.242c-0.684,-1.792 -2.425,-3.209 -3.253,-3.091c-3.227,0.461 -6.486,0.777 -9.696,1.312c-2.871,0.478 -5.781,0.855 -8.543,1.724c-2.673,0.842 -5.192,2.129 -7.705,3.391c-9.391,4.716 -18.889,19.697 -10.846,33.479c1.662,2.848 3.804,-9.883 4.201,-10.527c3.219,-5.22 5.158,-8.793 9.997,-12.15c6.496,-4.505 11.459,-4.567 18.651,-7.283c2.393,-0.903 8.006,-4.73 7.194,-6.855Z" style="fill:#fff;fill-opacity:0.19;"></path> <path d="M515.592,185.99c0,0 -1.239,9.752 2.746,11.201c4.211,1.531 9.065,-0.861 11.405,-4.508" style="fill:none;stroke:#463122;stroke-opacity:0.6;stroke-width:2.13px;"></path> <path d="M573.126,207.871c0,0 -5.596,6.267 -9.846,4.551c-4.155,-1.677 -5.399,-5.815 -4.528,-10.9" style="fill:none;stroke:#463122;stroke-opacity:0.6;stroke-width:2.13px;"></path> <path d="M539.763,337.289c0.659,0.017 15.976,-5.165 19.051,-6.577" style="fill:#f4dac7;stroke:#000;stroke-width:6.71px;"></path> <path d="M558.581,309.313c-0.174,0.377 -17.102,26.468 -18.385,28.159" style="fill:#f4dac7;stroke:#000;stroke-width:6.71px;"></path> <path d="M544.071,307.576c-0.168,-0.091 -3.69,26.078 -4.308,28.485" style="fill:#f4dac7;stroke:#000;stroke-width:6.71px;"></path> <path d="M427.175,254.558c0,0 -46.964,42.884 -27.714,84.065c19.25,41.181 84.519,35.736 106.778,25.785c22.259,-9.952 29.755,-22.435 33.155,-26.792" style="fill:none;stroke:#000;stroke-width:8.54px;"></path> <path d="M588.454,202.868c-0.278,-0.207 0.022,1.06 0.079,1.4c0.191,1.149 0.491,2.452 0.812,3.575c0.541,1.893 0.488,3.86 0.488,5.848c0,0.311 -0.198,1.752 0,1.95c1.49,1.491 6.906,0.129 8.285,-0.975c5.328,-4.261 5.332,-12.03 -1.787,-13.809c-1.868,-0.467 -7.877,2.011 -7.877,2.011Z" style="fill:#7d593e;fill-opacity:0.22;"></path> <path d="M504.137,176.416c0.33,-0.109 -0.355,0.999 -0.516,1.304c-0.544,1.029 -1.239,2.171 -1.898,3.136c-1.11,1.626 -1.679,3.51 -2.306,5.397c-0.097,0.295 -0.364,1.725 -0.614,1.85c-1.884,0.945 -6.595,-2.054 -7.556,-3.537c-3.713,-5.723 -1.268,-13.097 6.048,-12.542c1.92,0.145 6.842,4.392 6.842,4.392Z" style="fill:#7d593e;fill-opacity:0.22;"></path> <ellipse cx="433.109" cy="162.972" rx="67.953" ry="62.393" style="fill:#fff;"></ellipse> <path d="M401.195,133.704c0,0 1.771,10.788 7.223,10.751c5.144,-0.035 6.129,-10.505 6.233,-10.256" style="fill:none;stroke:#000;stroke-width:2.44px;"></path> <path d="M464.073,131.846c0,0 0.43,10.061 5.295,10.592c4.59,0.501 6.583,-8.982 6.649,-8.744" style="fill:none;stroke:#000;stroke-width:2.44px;"></path> <path d="M429.002,100.79c0.427,-0.239 3.769,0 0.567,0c-2.392,0 -4.328,0.826 -6.616,1.468c-6.297,1.768 -12.458,3.299 -18.568,5.872c-18.391,7.745 -31.04,22.893 -37.991,41.106c-3.566,9.345 -2.434,20.816 1.067,29.99c1.832,4.799 2.137,10.281 4.482,14.89c10.494,20.622 34.008,25.97 54.638,31.038c5.578,1.371 13.443,-0.628 18.782,-1.678c17.857,-3.509 33.539,-11.644 44.18,-25.585c2.7,-3.537 6.01,-7.02 7.47,-11.325c2.994,-8.825 3.202,-18.102 3.202,-27.474c0,-7.412 0.455,-15.553 -2.348,-22.44c-3.224,-7.919 -10.826,-13.364 -16.648,-19.084c-12.493,-12.277 -21.874,-12.47 -37.511,-16.311c-3.591,-0.882 -14.706,-0.467 -14.706,-0.467Z" style="fill:none;stroke:#000;stroke-width:5.18px;"></path> <path d="M723.685,691.848c-1.27,-1.188 -4.057,-16.276 4.884,-14.697c10.777,1.902 6.773,12.714 0.469,15.844c0,0 13.51,-6.232 15.065,1.507c1.565,7.793 -2.507,13.009 -8.733,8.347c-6.227,-4.661 -5.992,-3.641 -5.992,-3.641c0,0 6.835,13.608 -3.6,11.901c-10.435,-1.707 -7.299,-7.536 -4.315,-10.64c2.984,-3.104 2.489,-3.127 2.489,-3.127c0,0 -3.939,0.775 -8.254,1.851c-4.316,1.077 -7.024,-1.122 -5.33,-8.381c1.364,-5.842 4.874,-5.505 8.074,-3.979c0.777,0.37 1.445,0.918 1.925,1.626c2.459,3.621 3.318,3.389 3.318,3.389Z" style="fill:#ffca00;"></path> <path d="M726.398,692.889c0,-0.381 0.32,-0.691 0.715,-0.691c0.395,0 0.716,0.31 0.716,0.691c0.197,-0.33 0.635,-0.443 0.977,-0.253c0.342,0.19 0.459,0.613 0.262,0.943c0.342,-0.191 0.78,-0.078 0.977,0.252c0.197,0.33 0.08,0.753 -0.262,0.943c0.395,0 0.716,0.309 0.716,0.69c0,0.381 -0.321,0.69 -0.716,0.69c0.342,0.191 0.459,0.613 0.262,0.943c-0.197,0.33 -0.635,0.443 -0.977,0.253c0.197,0.329 0.08,0.752 -0.262,0.942c-0.342,0.191 -0.78,0.078 -0.977,-0.252c0,0.381 -0.321,0.69 -0.716,0.69c-0.395,0 -0.715,-0.309 -0.715,-0.69c-0.198,0.33 -0.636,0.443 -0.978,0.252c-0.342,-0.19 -0.459,-0.613 -0.262,-0.942c-0.342,0.19 -0.78,0.077 -0.977,-0.253c-0.197,-0.33 -0.08,-0.752 0.262,-0.943c-0.395,0 -0.716,-0.309 -0.716,-0.69c0,-0.381 0.321,-0.69 0.716,-0.69c-0.342,-0.19 -0.459,-0.613 -0.262,-0.943c0.197,-0.33 0.635,-0.443 0.977,-0.252c-0.197,-0.33 -0.08,-0.753 0.262,-0.943c0.342,-0.19 0.78,-0.077 0.978,0.253Z" style="fill:#c7ac6a;"></path> <path d="M848.606,684.031c-1.27,-1.188 -4.057,-16.275 4.885,-14.697c10.776,1.903 6.772,12.714 0.468,15.844c0,0 13.511,-6.232 15.065,1.507c1.566,7.793 -2.507,13.009 -8.733,8.348c-6.226,-4.662 -5.991,-3.642 -5.991,-3.642c0,0 6.834,13.609 -3.601,11.902c-10.435,-1.707 -7.299,-7.536 -4.315,-10.64c2.984,-3.104 2.489,-3.127 2.489,-3.127c0,0 -3.939,0.775 -8.254,1.851c-4.316,1.076 -7.024,-1.122 -5.33,-8.382c1.364,-5.842 4.874,-5.504 8.075,-3.979c0.776,0.371 1.444,0.919 1.924,1.626c2.459,3.621 3.318,3.389 3.318,3.389Z" style="fill:#ee6a74;"></path> <path d="M851.319,685.072c0,-0.381 0.32,-0.69 0.715,-0.69c0.395,0 0.716,0.309 0.716,0.69c0.197,-0.33 0.635,-0.443 0.977,-0.252c0.342,0.19 0.459,0.612 0.262,0.942c0.342,-0.19 0.78,-0.077 0.977,0.253c0.198,0.33 0.08,0.752 -0.262,0.943c0.395,0 0.716,0.309 0.716,0.69c0,0.381 -0.321,0.69 -0.716,0.69c0.342,0.19 0.46,0.613 0.262,0.943c-0.197,0.329 -0.635,0.443 -0.977,0.252c0.197,0.33 0.08,0.752 -0.262,0.943c-0.342,0.19 -0.78,0.077 -0.977,-0.253c0,0.381 -0.321,0.69 -0.716,0.69c-0.395,0 -0.715,-0.309 -0.715,-0.69c-0.198,0.33 -0.636,0.443 -0.977,0.253c-0.342,-0.191 -0.46,-0.613 -0.262,-0.943c-0.342,0.191 -0.78,0.077 -0.978,-0.252c-0.197,-0.33 -0.08,-0.753 0.262,-0.943c-0.395,0 -0.715,-0.309 -0.715,-0.69c0,-0.381 0.32,-0.69 0.715,-0.69c-0.342,-0.191 -0.459,-0.613 -0.262,-0.943c0.198,-0.33 0.636,-0.443 0.978,-0.253c-0.198,-0.33 -0.08,-0.752 0.262,-0.942c0.341,-0.191 0.779,-0.078 0.977,0.252Z" style="fill:#c7ac6a;"></path> <path d="M764.569,514.383c-0.779,-0.728 -2.489,-9.984 2.996,-9.015c6.611,1.166 4.155,7.799 0.288,9.719c0,0 8.288,-3.823 9.241,0.924c0.961,4.781 -1.537,7.981 -5.357,5.121c-3.819,-2.859 -3.675,-2.234 -3.675,-2.234c0,0 4.192,8.348 -2.209,7.301c-6.401,-1.047 -4.478,-4.623 -2.647,-6.527c1.831,-1.904 1.527,-1.918 1.527,-1.918c0,0 -2.416,0.475 -5.064,1.135c-2.647,0.661 -4.309,-0.688 -3.269,-5.141c0.836,-3.584 2.99,-3.377 4.953,-2.441c0.476,0.227 0.886,0.563 1.181,0.997c1.508,2.222 2.035,2.079 2.035,2.079Z" style="fill:#ffca00;"></path> <path d="M766.233,515.022c0,-0.234 0.197,-0.424 0.439,-0.424c0.242,0 0.439,0.19 0.439,0.424c0.121,-0.203 0.39,-0.272 0.599,-0.155c0.21,0.117 0.282,0.376 0.161,0.578c0.21,-0.117 0.479,-0.047 0.6,0.155c0.121,0.202 0.049,0.462 -0.161,0.578c0.242,0 0.439,0.19 0.439,0.424c0,0.233 -0.197,0.423 -0.439,0.423c0.21,0.117 0.282,0.376 0.161,0.578c-0.121,0.203 -0.39,0.272 -0.6,0.155c0.121,0.203 0.049,0.462 -0.161,0.579c-0.209,0.117 -0.478,0.047 -0.599,-0.155c0,0.233 -0.197,0.423 -0.439,0.423c-0.242,0 -0.439,-0.19 -0.439,-0.423c-0.121,0.202 -0.39,0.272 -0.599,0.155c-0.21,-0.117 -0.282,-0.376 -0.161,-0.579c-0.21,0.117 -0.478,0.048 -0.6,-0.155c-0.121,-0.202 -0.049,-0.461 0.161,-0.578c-0.242,0 -0.439,-0.19 -0.439,-0.423c0,-0.234 0.197,-0.424 0.439,-0.424c-0.21,-0.116 -0.282,-0.376 -0.161,-0.578c0.122,-0.202 0.39,-0.272 0.6,-0.155c-0.121,-0.202 -0.049,-0.461 0.161,-0.578c0.209,-0.117 0.478,-0.048 0.599,0.155Z" style="fill:#c7ac6a;"></path> <path d="M291.638,683.568c-0.779,-0.729 -2.489,-9.984 2.996,-9.016c6.611,1.167 4.155,7.799 0.288,9.719c0,0 8.287,-3.823 9.241,0.925c0.96,4.78 -1.538,7.98 -5.357,5.12c-3.82,-2.859 -3.676,-2.233 -3.676,-2.233c0,0 4.193,8.348 -2.208,7.3c-6.402,-1.047 -4.478,-4.622 -2.647,-6.526c1.83,-1.905 1.527,-1.919 1.527,-1.919c0,0 -2.417,0.476 -5.064,1.136c-2.647,0.66 -4.309,-0.688 -3.269,-5.142c0.836,-3.584 2.989,-3.377 4.953,-2.441c0.476,0.227 0.886,0.564 1.18,0.998c1.509,2.221 2.036,2.079 2.036,2.079Z" style="fill:#ffca00;"></path> <path d="M293.302,684.206c0,-0.234 0.196,-0.423 0.439,-0.423c0.242,0 0.439,0.189 0.439,0.423c0.121,-0.202 0.389,-0.272 0.599,-0.155c0.21,0.117 0.282,0.376 0.161,0.578c0.21,-0.116 0.478,-0.047 0.599,0.155c0.121,0.203 0.049,0.462 -0.16,0.579c0.242,0 0.439,0.189 0.439,0.423c0,0.234 -0.197,0.423 -0.439,0.423c0.209,0.117 0.281,0.376 0.16,0.579c-0.121,0.202 -0.389,0.272 -0.599,0.155c0.121,0.202 0.049,0.461 -0.161,0.578c-0.21,0.117 -0.478,0.047 -0.599,-0.155c0,0.234 -0.197,0.423 -0.439,0.423c-0.243,0 -0.439,-0.189 -0.439,-0.423c-0.121,0.202 -0.39,0.272 -0.6,0.155c-0.21,-0.117 -0.281,-0.376 -0.16,-0.578c-0.21,0.117 -0.479,0.047 -0.6,-0.155c-0.121,-0.203 -0.049,-0.462 0.161,-0.579c-0.243,0 -0.439,-0.189 -0.439,-0.423c0,-0.234 0.196,-0.423 0.439,-0.423c-0.21,-0.117 -0.282,-0.376 -0.161,-0.579c0.121,-0.202 0.39,-0.271 0.6,-0.155c-0.121,-0.202 -0.05,-0.461 0.16,-0.578c0.21,-0.117 0.479,-0.047 0.6,0.155Z" style="fill:#c7ac6a;"></path> <path d="M314.376,697.63c-0.779,-0.729 -2.488,-9.984 2.997,-9.016c6.61,1.167 4.154,7.8 0.287,9.72c0,0 8.288,-3.823 9.242,0.924c0.96,4.781 -1.538,7.98 -5.358,5.121c-3.819,-2.86 -3.675,-2.234 -3.675,-2.234c0,0 4.192,8.348 -2.209,7.301c-6.401,-1.047 -4.477,-4.623 -2.647,-6.527c1.831,-1.904 1.527,-1.918 1.527,-1.918c0,0 -2.416,0.475 -5.063,1.135c-2.648,0.66 -4.309,-0.688 -3.27,-5.141c0.837,-3.584 2.99,-3.377 4.953,-2.441c0.477,0.227 0.886,0.563 1.181,0.997c1.508,2.221 2.035,2.079 2.035,2.079Z" style="fill:#ef6974;"></path> <path d="M316.04,698.269c0,-0.234 0.197,-0.424 0.439,-0.424c0.243,0 0.439,0.19 0.439,0.424c0.121,-0.203 0.39,-0.272 0.6,-0.155c0.21,0.116 0.281,0.376 0.16,0.578c0.21,-0.117 0.479,-0.047 0.6,0.155c0.121,0.202 0.049,0.461 -0.161,0.578c0.242,0 0.439,0.19 0.439,0.424c0,0.233 -0.197,0.423 -0.439,0.423c0.21,0.117 0.282,0.376 0.161,0.578c-0.121,0.203 -0.39,0.272 -0.6,0.155c0.121,0.203 0.05,0.462 -0.16,0.578c-0.21,0.117 -0.479,0.048 -0.6,-0.154c0,0.233 -0.196,0.423 -0.439,0.423c-0.242,0 -0.439,-0.19 -0.439,-0.423c-0.121,0.202 -0.389,0.271 -0.599,0.154c-0.21,-0.116 -0.282,-0.375 -0.161,-0.578c-0.21,0.117 -0.478,0.048 -0.599,-0.155c-0.121,-0.202 -0.049,-0.461 0.16,-0.578c-0.242,0 -0.439,-0.19 -0.439,-0.423c0,-0.234 0.197,-0.424 0.439,-0.424c-0.209,-0.117 -0.281,-0.376 -0.16,-0.578c0.121,-0.202 0.389,-0.272 0.599,-0.155c-0.121,-0.202 -0.049,-0.462 0.161,-0.578c0.21,-0.117 0.478,-0.048 0.599,0.155Z" style="fill:#c7ac6a;"></path> <path d="M236.039,481.333c-0.982,-0.919 -3.137,-12.586 3.777,-11.365c8.334,1.471 5.238,9.831 0.363,12.252c0,0 10.447,-4.819 11.649,1.165c1.21,6.026 -1.938,10.059 -6.753,6.455c-4.815,-3.605 -4.633,-2.816 -4.633,-2.816c0,0 5.285,10.523 -2.784,9.203c-8.069,-1.32 -5.645,-5.827 -3.337,-8.227c2.308,-2.401 1.925,-2.419 1.925,-2.419c0,0 -3.046,0.6 -6.383,1.432c-3.337,0.832 -5.432,-0.868 -4.121,-6.481c1.054,-4.518 3.769,-4.257 6.243,-3.077c0.601,0.286 1.117,0.71 1.489,1.257c1.901,2.8 2.565,2.621 2.565,2.621Z" style="fill:#ee6a74;"></path> <path d="M238.137,482.138c0,-0.295 0.248,-0.534 0.553,-0.534c0.306,0 0.553,0.239 0.553,0.534c0.153,-0.256 0.492,-0.343 0.756,-0.196c0.265,0.147 0.355,0.474 0.203,0.729c0.264,-0.147 0.603,-0.06 0.755,0.196c0.153,0.255 0.062,0.581 -0.202,0.728c0.305,0 0.553,0.24 0.553,0.534c0,0.295 -0.248,0.534 -0.553,0.534c0.264,0.147 0.355,0.474 0.202,0.729c-0.152,0.255 -0.491,0.342 -0.755,0.195c0.152,0.255 0.062,0.582 -0.203,0.729c-0.264,0.147 -0.603,0.06 -0.756,-0.195c0,0.294 -0.247,0.533 -0.553,0.533c-0.305,0 -0.553,-0.239 -0.553,-0.533c-0.153,0.255 -0.491,0.342 -0.756,0.195c-0.264,-0.147 -0.355,-0.474 -0.202,-0.729c-0.265,0.147 -0.603,0.06 -0.756,-0.195c-0.153,-0.255 -0.062,-0.582 0.202,-0.729c-0.305,0 -0.553,-0.239 -0.553,-0.534c0,-0.294 0.248,-0.534 0.553,-0.534c-0.264,-0.147 -0.355,-0.473 -0.202,-0.728c0.153,-0.256 0.491,-0.343 0.756,-0.196c-0.153,-0.255 -0.062,-0.582 0.202,-0.729c0.265,-0.147 0.603,-0.06 0.756,0.196Z" style="fill:#c7ac6a;"></path> <path d="M733.796,703.688c0,-0.028 0.108,-0.051 0.242,-0.051c0.133,0 0.241,0.023 0.241,0.051c0.066,-0.024 0.214,-0.033 0.329,-0.019c0.116,0.014 0.155,0.045 0.089,0.069c0.115,-0.014 0.263,-0.005 0.329,0.019c0.067,0.024 0.027,0.055 -0.088,0.069c0.133,0 0.241,0.023 0.241,0.051c0,0.028 -0.108,0.05 -0.241,0.05c0.115,0.014 0.155,0.045 0.088,0.07c-0.066,0.024 -0.214,0.032 -0.329,0.018c0.066,0.024 0.027,0.055 -0.089,0.069c-0.115,0.014 -0.263,0.006 -0.329,-0.018c0,0.028 -0.108,0.05 -0.241,0.05c-0.134,0 -0.242,-0.022 -0.242,-0.05c-0.066,0.024 -0.214,0.032 -0.329,0.018c-0.116,-0.014 -0.155,-0.045 -0.089,-0.069c-0.115,0.014 -0.262,0.006 -0.329,-0.018c-0.067,-0.025 -0.027,-0.056 0.088,-0.07c-0.133,0 -0.241,-0.022 -0.241,-0.05c0,-0.028 0.108,-0.051 0.241,-0.051c-0.115,-0.014 -0.155,-0.045 -0.088,-0.069c0.067,-0.024 0.214,-0.033 0.329,-0.019c-0.066,-0.024 -0.027,-0.055 0.089,-0.069c0.115,-0.014 0.263,-0.005 0.329,0.019Z" style="fill:#c7ac6a;"></path> <path d="M491.13,233.184c-1.385,10.232 5.993,20.855 16.268,27.99c15.978,11.094 41.447,9.276 54.501,-3.818" style="fill:none;stroke:#7d593e;stroke-width:3.96px;"></path> <path d="M407.911,170.496c1.589,9.209 9.985,16.71 19.695,20.504c15.098,5.899 34.116,-1.632 40.715,-16.054" style="fill:none;stroke:#000;stroke-width:3.05px;"></path> </g> <defs> <linearGradient id="_Linear2" x1="0" y1="0" x2="1" y2="0.0391539" gradientUnits="userSpaceOnUse" gradientTransform="matrix(58.8328,561.822,-860.786,38.3993,737.939,-133.496)"> <stop offset="0" style="stop-color:#fff;stop-opacity:0"></stop> <stop offset="1" style="stop-color:#46bdcc;stop-opacity:1"></stop> </linearGradient> <linearGradient id="_Linear3" x1="0" y1="0" x2="1" y2="0.00389227" gradientUnits="userSpaceOnUse" gradientTransform="matrix(3.95047,315.78,-408.535,3.05354,697.927,504.84)"> <stop offset="0" style="stop-color:#4fb262;stop-opacity:1"></stop> <stop offset="0.48" style="stop-color:#7ec78c;stop-opacity:0.73"></stop> <stop offset="1" style="stop-color:#fff;stop-opacity:0"></stop> </linearGradient> </defs> </svg> 