<?xml version="1.0" encoding="UTF-8"?> <svg xmlns="http://www.w3.org/2000/svg" xmlns:xlink="http://www.w3.org/1999/xlink" width="366" height="237.019" viewBox="0 0 366 237.019"> <defs> <filter id="card" x="0" y="0" width="366" height="228" filterUnits="userSpaceOnUse"> <feOffset></feOffset> <feGaussianBlur stdDeviation="4.5" result="blur"></feGaussianBlur> <feFlood flood-color="#c3cbce"></feFlood> <feComposite operator="in" in2="blur"></feComposite> <feComposite in="SourceGraphic"></feComposite> </filter> <radialGradient id="radial-gradient" cx="0.5" cy="0.5" r="0.5" gradientUnits="objectBoundingBox"> <stop offset="0" stop-color="#fff"></stop> <stop offset="1" stop-color="#fff" stop-opacity="0"></stop> </radialGradient> <filter id="V" x="31.763" y="105.38" width="36.422" height="31.297" filterUnits="userSpaceOnUse"> <feOffset dy="3"></feOffset> <feGaussianBlur stdDeviation="3" result="blur-2"></feGaussianBlur> <feFlood flood-opacity="0.161"></feFlood> <feComposite operator="in" in2="blur-2"></feComposite> <feComposite in="SourceGraphic"></feComposite> </filter> </defs> <g id="Сгруппировать_3226" data-name="Сгруппировать 3226" transform="translate(-4.5 -223.5)"> <g id="Сгруппировать_3225" data-name="Сгруппировать 3225"> <g id="PRKTS" transform="translate(0 -37.406)"> <g transform="matrix(1, 0, 0, 1, 4.5, 260.91)" filter="url(#card)"> <rect id="card-2" data-name="card" width="339" height="201" rx="8" transform="translate(13.5 13.5)" fill="#fff"></rect> </g> <g id="PRK4" transform="translate(18 335.696)"> <g id="bg"> <rect id="bg_w" width="339" height="85" transform="translate(0 -0.291)" fill="#eff2f3" opacity="0.5"></rect> <line id="Линия_107" data-name="Линия 107" x2="339" transform="translate(0 -0.291)" fill="none" stroke="#ebeeef" stroke-width="2"></line> <line id="Линия_108" data-name="Линия 108" x2="339" transform="translate(0 84.709)" fill="none" stroke="#ebeeef" stroke-width="2"></line> </g> <g id="txt" transform="translate(71.418 14.262)"> <text id="Спать_с_выключенным_светом_и_маской_на_глазах" data-name="Спать с выключенным светом и маской на глазах" fill="#334856" font-size="16" font-family="SegoeUI, Segoe UI"> <tspan x="0" y="17">Спать с выключенным светом </tspan> <tspan x="0" y="37">и маской на глазах</tspan> </text> <g id="t-sml" transform="translate(0 43)"> <text id="Выполнено" transform="translate(0 14)" fill="#334856" font-size="13" font-family="SegoeUI, Segoe UI"> <tspan x="0" y="0">Выполнено</tspan> </text> </g> </g> <g id="icn_check" transform="translate(0 7.377)"> <circle id="icn_bg" cx="36" cy="36" r="36" fill="url(#radial-gradient)"></circle> <g id="off" transform="translate(21 21)" fill="#ebeeef" stroke="#c3cbce" stroke-width="2.5"> <circle cx="15" cy="15" r="15" stroke="none"></circle> <circle cx="15" cy="15" r="13.75" fill="none"></circle> </g> <g id="on" transform="translate(21 21)"> <circle id="green" cx="15" cy="15" r="15" fill="#46d444"></circle> <g transform="matrix(1, 0, 0, 1, -34.5, -103.17)" filter="url(#V)"> <path id="V-2" data-name="V" d="M5.585,9.585l-.143.131.143-.131L0,4,5.585,9.585,16,0,5.585,9.585,6,10Z" transform="translate(42 112.67)" fill="#fff" stroke="#fff" stroke-width="3.5"></path> </g> </g> </g> </g> <g id="H1" transform="translate(18 294.405)"> <g id="Сгруппировать_2954" data-name="Сгруппировать 2954" transform="translate(21)"> <text id="МОИ_ПРАКТИКИ" data-name="МОИ ПРАКТИКИ" transform="translate(0 17)" fill="#334856" font-size="16" font-family="SegoeUI-Bold, Segoe UI" font-weight="700" letter-spacing="-0.02em"> <tspan x="0" y="0">МОИ ПРАКТИКИ</tspan> </text> </g> <path id="Контур_1911" data-name="Контур 1911" d="M0,0H339" transform="translate(0 41.162)" fill="none" stroke="#c3cbce" stroke-width="2"></path> </g> <g id="show-hide" transform="translate(18 497.925)"> <g id="hide" transform="translate(0 -76.717)"> <g id="bg-2" data-name="bg"> <path id="bg_w-2" data-name="bg_w" d="M0,0H339a0,0,0,0,1,0,0V46.736a8,8,0,0,1-8,8H8a8,8,0,0,1-8-8V0A0,0,0,0,1,0,0Z" fill="#f7f8f9"></path> </g> <path id="V-3" data-name="V" d="M7.779,7.148l-.62.569.62-.569L0,0,7.779,7.148,15.558,0,7.779,7.148l.62.569Z" transform="translate(42 29.585) rotate(180)" fill="none" stroke="#334856" stroke-width="3"></path> <text id="Скрыть_завершённые" data-name="Скрыть завершённые" transform="translate(71.417 16.368)" fill="#334856" font-size="16" font-family="SegoeUI, Segoe UI"> <tspan x="0" y="17">Скрыть завершённые</tspan> </text> </g> <path id="Контур_1918" data-name="Контур 1918" d="M0,0" fill="none" stroke="#c3cbce" stroke-width="2"></path> </g> </g> </g> </g> </svg> 