<?xml version="1.0" encoding="UTF-8"?> <svg xmlns="http://www.w3.org/2000/svg" width="10.076" height="10.087" viewBox="0 0 10.076 10.087"> <path id="ico-timer" d="M5.5-9.625a4.883,4.883,0,0,0-1.96.4,5.108,5.108,0,0,0-1.6,1.08,5.108,5.108,0,0,0-1.08,1.6,4.883,4.883,0,0,0-.4,1.96,4.883,4.883,0,0,0,.4,1.96,5.173,5.173,0,0,0,1.08,1.606A5.063,5.063,0,0,0,3.54.064a4.883,4.883,0,0,0,1.96.4,4.883,4.883,0,0,0,1.96-.4,5.063,5.063,0,0,0,1.6-1.085,5.173,5.173,0,0,0,1.08-1.606,4.883,4.883,0,0,0,.4-1.96,4.883,4.883,0,0,0-.4-1.96,5.108,5.108,0,0,0-1.08-1.6,5.108,5.108,0,0,0-1.6-1.08A4.883,4.883,0,0,0,5.5-9.625Zm0,9.163A4.02,4.02,0,0,1,3.9-.784a4.2,4.2,0,0,1-1.316-.881A4.1,4.1,0,0,1,1.7-2.976a4.047,4.047,0,0,1-.322-1.611,4.02,4.02,0,0,1,.322-1.6A4.1,4.1,0,0,1,2.583-7.5,4.28,4.28,0,0,1,3.9-8.384a3.963,3.963,0,0,1,1.6-.328,3.963,3.963,0,0,1,1.6.328A4.28,4.28,0,0,1,8.417-7.5,4.1,4.1,0,0,1,9.3-6.187a4.02,4.02,0,0,1,.322,1.6A4.047,4.047,0,0,1,9.3-2.976a4.1,4.1,0,0,1-.886,1.311A4.2,4.2,0,0,1,7.1-.784,4.02,4.02,0,0,1,5.5-.462ZM5.962-4.77V-7.337a.433.433,0,0,0-.134-.317A.446.446,0,0,0,5.5-7.788a.446.446,0,0,0-.328.134.433.433,0,0,0-.134.317v2.75a.414.414,0,0,0,.038.177.507.507,0,0,0,.1.145L6.553-2.89a.366.366,0,0,0,.15.107.487.487,0,0,0,.172.032.487.487,0,0,0,.172-.032A.366.366,0,0,0,7.2-2.89a.414.414,0,0,0,.14-.317.449.449,0,0,0-.14-.328Z" transform="translate(-0.462 9.625)" fill="#334856"></path> </svg> 