<?xml version="1.0" encoding="UTF-8"?> <svg xmlns="http://www.w3.org/2000/svg" width="66" height="64" viewBox="0 0 66 64" fill="none"> <path d="M40 16H24C19.5817 16 16 19.5817 16 24V40C16 44.4183 19.5817 48 24 48H40C44.4183 48 48 44.4183 48 40V24C48 19.5817 44.4183 16 40 16Z" fill="url(#paint0_linear)"></path> <path d="M40 17H24C20.134 17 17 20.134 17 24V40C17 43.866 20.134 47 24 47H40C43.866 47 47 43.866 47 40V24C47 20.134 43.866 17 40 17Z" stroke="#334856" stroke-width="2"></path> <path d="M27 32H37" stroke="#334856" stroke-width="2" stroke-linecap="round"></path> <path d="M27 32L31 28" stroke="#334856" stroke-width="2" stroke-linecap="round"></path> <path d="M27 32L31 36" stroke="#334856" stroke-width="2" stroke-linecap="round"></path> <defs> <linearGradient id="paint0_linear" x1="32" y1="16" x2="32" y2="48" gradientUnits="userSpaceOnUse"> <stop stop-color="#FEFEFE"></stop> <stop offset="1" stop-color="#F6F6F6"></stop> </linearGradient> </defs> </svg> 